<?xml version="1.0" encoding="iso-8859-1"?>
<!-- Uploaded to: SVG Repo, www.svgrepo.com, Generator: SVG Repo Mixer Tools -->
<svg height="800px" width="800px" version="1.1" id="Layer_1" xmlns="http://www.w3.org/2000/svg" xmlns:xlink="http://www.w3.org/1999/xlink" 
	 viewBox="0 0 508 508" xml:space="preserve">
<circle style="fill:#FD8469;" cx="254" cy="254" r="254"/>
<path style="fill:#2B3B4E;" d="M365.7,416.9c-5.1,0-10.3-0.7-15.4-2.2l-89.2-25.4l3-10.6l89.2,25.4c13.6,3.9,27.9,1.2,39.2-7.3
	c11.3-8.5,17.8-21.5,17.8-35.7v-24.4h11v24.4c0,17.6-8.1,33.8-22.2,44.5C389.3,413.1,377.6,416.9,365.7,416.9z"/>
<path style="fill:#324A5E;" d="M422.7,274H405v-45.5c0-84.3-67.8-152.9-151-152.9c-83.3,0-151,68.6-151,152.9v42.2H85.3v-42.2
	C85.3,134.5,161,58,254,58s168.7,76.5,168.7,170.6V274z"/>
<path style="fill:#FFFFFF;" d="M400.9,250.6c0-4.7-2.4-9.1-6.5-11.5c-7.5-4.4-15.9-6.8-24.7-6.8c-1.3,0-2.5,0.1-3.8,0.2
	c-11.8,0.9-20.9,10.8-20.9,22.7v97.5c0,11.8,9.1,21.7,20.9,22.7c1.3,0.1,2.5,0.2,3.8,0.2c8.8,0,17.2-2.4,24.7-6.8
	c4.1-2.4,6.5-6.8,6.5-11.5V250.6z"/>
<path style="fill:#E6E9EE;" d="M369.9,232.4c-0.1,0-0.2,0-0.2,0c-1.3,0-2.5,0.1-3.8,0.2c-11.8,0.9-20.9,10.8-20.9,22.7v97.5
	c0,11.8,9.1,21.7,20.9,22.7c1.3,0.1,2.5,0.2,3.8,0.2c0.1,0,0.2,0,0.2,0V232.4z"/>
<path style="fill:#CED5E0;" d="M400.9,350.8H428c1.5,0,2.7-1.2,2.7-2.7v-88.2c0-1.5-1.2-2.7-2.7-2.7h-27.1V350.8z"/>
<path style="fill:#FFFFFF;" d="M107.1,250.6c0-4.7,2.4-9.1,6.5-11.5c7.5-4.4,15.9-6.8,24.7-6.8c1.3,0,2.5,0.1,3.8,0.2
	c11.8,0.9,20.9,10.8,20.9,22.7v97.5c0,11.8-9.1,21.7-20.9,22.7c-1.3,0.1-2.5,0.2-3.8,0.2c-8.8,0-17.2-2.4-24.7-6.8
	c-4.1-2.4-6.5-6.8-6.5-11.5C107.1,357.3,107.1,250.6,107.1,250.6z"/>
<path style="fill:#E6E9EE;" d="M138.1,232.4c0.1,0,0.2,0,0.2,0c1.3,0,2.5,0.1,3.8,0.2c11.8,0.9,20.9,10.8,20.9,22.7v97.5
	c0,11.8-9.1,21.7-20.9,22.7c-1.3,0.1-2.5,0.2-3.8,0.2c-0.1,0-0.2,0-0.2,0V232.4z"/>
<path style="fill:#CED5E0;" d="M107.1,350.8h-27c-1.5,0-2.7-1.2-2.7-2.7v-88.2c0-1.5,1.2-2.7,2.7-2.7h27.1v93.6H107.1z"/>
<g>
	<path style="fill:#FFFFFF;" d="M196.4,181.1c1.6-2.3,2.5-4.6,2.5-6.8s-0.7-4-2.1-5.5c-1.4-1.5-3.3-2.2-5.5-2.2
		c-4.1,0-8,2.9-11.7,8.8l-11.7-6.9c3.1-4.7,6.4-8.3,10-10.7s8.3-3.6,13.9-3.6s10.6,1.8,14.8,5.4c4.3,3.6,6.4,8.4,6.4,14.6
		c0,3.4-0.9,6.6-2.6,9.7c-1.7,3.1-4.9,7-9.5,11.8l-11.8,12.2H215V221h-46v-10.8l19.1-19.6C192,186.6,194.7,183.5,196.4,181.1z"/>
	<path style="fill:#FFFFFF;" d="M249.6,192.8v-11.4h14v11.4h7.4v12.6h-7.4V221h-14v-15.6h-26.2v-11.1l23.2-38.5h15.9l-22.1,37.1h9.2
		V192.8z"/>
	<path style="fill:#FFFFFF;" d="M295.5,193.9V221h-14v-69.3h14v24.6c4.2-4.3,9-6.4,14.2-6.4c5.3,0,9.7,1.9,13.3,5.6
		c3.6,3.7,5.4,8.7,5.4,14.9v30.5h-14v-27.4c0-7.7-2.8-11.6-8.5-11.6c-2.8,0-5.2,1-7.3,3C296.6,187,295.5,190,295.5,193.9z"/>
</g>
<ellipse transform="matrix(0.2467 -0.9691 0.9691 0.2467 -171.7163 545.902)" style="fill:#324A5E;" cx="265.282" cy="383.404" rx="20.9" ry="31.6"/>
</svg>