<?xml version="1.0" encoding="iso-8859-1"?>
<!-- Uploaded to: SVG Repo, www.svgrepo.com, Generator: SVG Repo Mixer Tools -->
<svg height="800px" width="800px" version="1.1" id="Layer_1" xmlns="http://www.w3.org/2000/svg" xmlns:xlink="http://www.w3.org/1999/xlink" 
	 viewBox="0 0 512 512" xml:space="preserve">
<path style="fill:#E9A35F;" d="M500.6,157.9L270.2,4.3c-8.6-5.733-19.799-5.733-28.401,0l-230.4,153.6
	C4.279,162.647,0,170.642,0,179.2v0.575c0,8.574,4.294,16.58,11.436,21.325l91.974,61.085l138.426,91.94
	c4.291,2.85,9.226,4.275,14.164,4.275c4.937,0,9.871-1.425,14.164-4.275l230.4-153.027c7.144-4.745,11.436-12.751,11.436-21.325
	V179.2C512,170.642,507.722,162.647,500.6,157.9z"/>
<path style="fill:#B66D38;" d="M500.6,157.9L270.2,4.3C265.901,1.434,260.95,0,256,0v358.4c4.937,0,9.871-1.425,14.164-4.275
	l230.4-153.027c7.144-4.745,11.436-12.751,11.436-21.325V179.2C512,170.642,507.722,162.647,500.6,157.9z"/>
<path style="fill:#F4D371;" d="M498.499,157.213c-8.31-4.458-18.405-3.985-26.262,1.236l-1.604,1.065
	c-0.036,0.022-0.07,0.046-0.102,0.068l-23.037,15.3c-0.02,0.014-0.038,0.026-0.058,0.039L256,302.068L39.764,158.451
	c-7.856-5.219-17.946-5.693-26.264-1.236C5.188,161.675,0,170.343,0,179.776V486.4C0,500.538,11.462,512,25.6,512h460.8
	c14.138,0,25.6-11.462,25.6-25.6V179.774C512,170.341,506.812,161.673,498.499,157.213z"/>
<path style="fill:#E9A35F;" d="M498.499,157.213c-8.31-4.458-18.405-3.985-26.262,1.236l-1.604,1.065
	c-0.036,0.022-0.07,0.046-0.102,0.068l-23.037,15.3c-0.02,0.014-0.038,0.026-0.058,0.039L256,302.068V512h230.4
	c14.138,0,25.6-11.462,25.6-25.6V179.774C512,170.341,506.812,161.673,498.499,157.213z"/>
</svg>